<?xml version="1.0" encoding="UTF-8" standalone="no"?>
<svg xmlns="http://www.w3.org/2000/svg"
     xmlns:svg="http://www.w3.org/2000/svg"
     version="1.1"
     width="198.967mm" height="29.1254mm"
     viewBox="0 0 2350 344">
  <path id="Seleção"
        fill="black" stroke="black" stroke-width="1"
        d="M 2024.00,1.11
           C 2024.00,1.11 2062.00,1.11 2062.00,1.11
             2062.00,1.11 2131.00,1.11 2131.00,1.11
             2131.00,1.11 2340.00,1.11 2340.00,1.11
             2343.85,1.01 2348.09,0.22 2348.85,5.06
             2349.34,8.22 2346.38,23.88 2345.61,28.00
             2345.61,28.00 2338.08,71.00 2338.08,71.00
             2335.57,85.87 2336.72,87.87 2326.00,88.00
             2326.00,88.00 2264.00,88.00 2264.00,88.00
             2261.30,88.01 2257.64,87.68 2255.51,89.60
             2253.22,91.66 2252.59,97.02 2252.08,100.00
             2252.08,100.00 2247.80,124.00 2247.80,124.00
             2247.80,124.00 2226.41,245.00 2226.41,245.00
             2226.41,245.00 2213.25,319.00 2213.25,319.00
             2213.25,319.00 2210.41,335.00 2210.41,335.00
             2209.99,337.41 2209.78,340.31 2207.57,341.83
             2205.51,343.24 2201.45,343.00 2199.00,343.00
             2199.00,343.00 2131.00,343.00 2131.00,343.00
             2127.64,342.93 2124.10,342.86 2123.03,338.94
             2122.39,336.65 2124.43,326.95 2124.92,324.00
             2124.92,324.00 2131.39,288.00 2131.39,288.00
             2131.39,288.00 2158.25,135.00 2158.25,135.00
             2158.25,135.00 2164.00,103.00 2164.00,103.00
             2164.56,100.13 2166.41,92.73 2164.94,90.31
             2163.26,87.56 2158.79,88.01 2156.00,88.00
             2156.00,88.00 2050.00,88.00 2050.00,88.00
             2012.90,88.00 1984.34,85.53 1953.00,110.21
             1941.53,119.25 1932.14,130.04 1925.32,143.00
             1909.07,173.89 1910.26,214.28 1937.00,238.91
             1942.44,243.92 1950.09,248.29 1957.00,250.94
             1964.62,253.85 1974.84,255.90 1983.00,256.00
             1983.00,256.00 2000.00,256.00 2000.00,256.00
             2002.68,255.99 2006.24,256.34 2008.35,254.40
             2010.76,252.19 2011.23,247.13 2011.75,244.00
             2011.75,244.00 2015.61,221.00 2015.61,221.00
             2016.25,217.49 2018.75,208.21 2016.96,205.30
             2014.76,201.72 2004.94,202.04 2001.00,202.00
             2001.00,202.00 1996.00,202.00 1996.00,202.00
             1993.03,201.98 1989.29,202.44 1988.33,198.85
             1987.67,196.37 1989.57,187.04 1990.08,184.00
             1990.08,184.00 1995.58,153.00 1995.58,153.00
             1996.13,149.93 1997.15,141.54 1998.57,139.29
             2000.38,136.43 2004.03,137.01 2007.00,137.00
             2007.00,137.00 2107.00,137.00 2107.00,137.00
             2109.84,137.01 2114.22,136.56 2115.96,139.31
             2117.62,141.93 2115.61,148.88 2115.08,152.00
             2115.08,152.00 2109.39,185.00 2109.39,185.00
             2109.39,185.00 2088.61,303.00 2088.61,303.00
             2088.61,303.00 2083.75,331.00 2083.75,331.00
             2083.28,333.70 2082.40,340.33 2080.28,342.01
             2077.72,344.04 2067.58,343.01 2064.00,343.00
             2064.00,343.00 1958.00,343.00 1958.00,343.00
             1946.52,342.86 1929.94,339.01 1919.00,335.33
             1905.93,330.94 1894.27,324.89 1883.00,316.96
             1821.78,273.91 1813.82,184.56 1841.43,120.00
             1863.53,68.30 1908.39,28.71 1962.00,12.02
             1978.56,6.87 1991.85,4.32 2009.00,2.28
             2009.00,2.28 2024.00,1.11 2024.00,1.11 Z
           M 500.00,172.00
           C 500.00,172.00 499.00,138.00 499.00,138.00
             499.00,138.00 500.02,130.60 500.02,130.60
             500.02,130.60 508.00,129.00 508.00,129.00
             508.00,129.00 562.00,129.00 562.00,129.00
             562.00,129.00 562.00,171.00 562.00,171.00
             562.00,171.00 523.00,171.00 523.00,171.00
             523.00,171.00 500.00,172.00 500.00,172.00 Z
           M 0.00,185.00
           C 8.18,185.00 21.83,187.14 27.15,179.90
             30.45,175.40 30.79,164.78 31.58,159.00
             31.88,156.76 31.78,152.46 33.60,151.02
             35.19,149.77 39.01,150.00 41.00,150.00
             41.00,150.00 77.00,150.00 77.00,150.00
             83.06,150.12 83.88,150.94 84.00,157.00
             84.00,157.00 84.00,185.00 84.00,185.00
             84.00,185.00 129.00,185.00 129.00,185.00
             129.00,185.00 129.00,232.00 129.00,232.00
             129.00,232.00 84.00,232.00 84.00,232.00
             84.00,232.00 84.00,279.00 84.00,279.00
             84.08,284.65 84.98,288.68 90.04,292.01
             98.71,297.70 116.87,294.09 127.00,294.00
             127.00,294.00 127.00,330.00 127.00,330.00
             127.00,331.97 127.26,335.69 126.01,337.27
             124.68,338.93 121.01,339.43 119.00,339.72
             119.00,339.72 102.00,341.01 102.00,341.01
             102.00,341.01 92.00,341.92 92.00,341.92
             92.00,341.92 84.00,340.96 84.00,340.96
             84.00,340.96 75.00,340.96 75.00,340.96
             60.94,339.47 42.89,333.95 33.46,322.96
             21.44,308.95 22.00,294.14 22.00,277.00
             22.00,277.00 22.00,232.00 22.00,232.00
             22.00,232.00 7.00,232.00 7.00,232.00
             0.16,231.87 0.04,230.43 0.00,224.00
             0.00,224.00 0.00,185.00 0.00,185.00 Z
           M 206.00,227.00
           C 207.07,215.14 214.75,199.99 224.01,192.52
             235.95,182.90 246.57,182.83 261.00,183.00
             271.47,183.13 281.36,186.75 288.96,194.09
             303.43,208.07 304.03,232.23 304.00,251.00
             304.00,251.00 303.00,269.00 303.00,269.00
             302.99,274.62 302.99,274.49 302.00,280.00
             302.00,280.00 249.00,280.00 249.00,280.00
             249.03,269.36 252.00,253.94 246.59,244.00
             237.87,227.99 217.32,234.25 210.47,251.00
             206.22,261.42 207.00,273.95 207.00,285.00
             207.00,285.00 207.00,339.00 207.00,339.00
             207.00,339.00 145.00,339.00 145.00,339.00
             145.00,339.00 145.00,185.00 145.00,185.00
             145.00,185.00 207.00,185.00 207.00,185.00
             207.00,185.00 206.00,208.00 206.00,208.00
             206.00,208.00 206.00,227.00 206.00,227.00 Z
           M 430.00,282.00
           C 430.00,282.00 474.00,282.00 474.00,282.00
             476.24,282.00 480.48,281.63 481.94,283.60
             483.37,285.47 482.29,289.81 481.94,292.00
             480.45,300.75 478.13,307.67 472.96,315.00
             461.04,331.88 441.46,337.78 422.00,340.57
             422.00,340.57 412.00,341.09 412.00,341.09
             412.00,341.09 404.00,341.92 404.00,341.92
             404.00,341.92 396.00,341.09 396.00,341.09
             377.55,339.83 360.49,337.32 345.00,326.07
             338.63,321.44 332.03,314.74 327.93,308.00
             311.26,280.62 313.21,233.63 334.30,209.00
             348.65,192.24 373.18,183.03 395.00,183.00
             395.00,183.00 414.00,183.00 414.00,183.00
             433.06,183.23 454.77,191.47 467.23,206.17
             482.98,224.77 483.00,248.09 483.00,271.00
             483.00,271.00 379.00,271.00 379.00,271.00
             380.65,280.06 381.67,289.06 389.17,295.47
             399.12,303.97 418.58,302.94 426.35,291.99
             428.48,288.98 429.28,285.54 430.00,282.00 Z
           M 643.00,223.00
           C 643.85,217.58 645.23,214.80 647.78,210.00
             661.11,184.90 681.60,182.71 707.00,183.00
             721.75,183.18 738.17,189.97 747.08,202.00
             759.39,218.64 758.00,235.63 758.00,255.00
             758.00,255.00 758.00,339.00 758.00,339.00
             758.00,339.00 696.00,339.00 696.00,339.00
             696.00,339.00 696.00,259.00 696.00,259.00
             695.99,252.40 695.34,246.44 690.61,241.30
             679.61,229.34 656.43,233.43 648.35,247.00
             644.05,254.22 643.01,263.73 643.00,272.00
             643.00,272.00 643.00,339.00 643.00,339.00
             643.00,339.00 581.00,339.00 581.00,339.00
             581.00,339.00 581.00,185.00 581.00,185.00
             581.00,185.00 643.00,185.00 643.00,185.00
             643.00,185.00 643.00,197.00 643.00,197.00
             642.96,205.68 640.56,214.41 643.00,223.00 Z
           M 886.00,282.00
           C 886.00,282.00 930.00,282.00 930.00,282.00
             932.24,282.00 936.48,281.63 938.05,283.60
             939.29,285.36 938.41,288.95 938.05,291.00
             936.96,299.45 934.91,305.70 930.38,313.00
             920.51,328.91 900.90,337.17 883.00,339.87
             867.04,342.27 845.70,342.43 830.00,338.53
             815.58,334.94 801.89,328.87 791.59,317.83
             775.84,300.95 772.75,280.10 773.00,258.00
             773.08,251.63 774.90,241.14 776.72,235.00
             778.69,228.36 781.34,221.85 785.09,216.00
             798.79,194.64 826.15,183.04 851.00,183.00
             851.00,183.00 870.00,183.00 870.00,183.00
             886.58,183.20 908.00,190.34 919.83,202.17
             933.08,215.41 938.78,235.64 939.00,254.00
             939.00,254.00 939.00,271.00 939.00,271.00
             939.00,271.00 835.00,271.00 835.00,271.00
             837.29,280.32 836.97,288.31 845.17,295.32
             855.13,303.83 874.57,303.10 882.35,292.00
             884.53,288.89 885.26,285.64 886.00,282.00 Z
           M 1151.00,183.14
           C 1151.00,183.14 1159.00,183.14 1159.00,183.14
             1159.00,183.14 1176.00,183.14 1176.00,183.14
             1194.21,183.03 1217.24,190.32 1229.71,204.04
             1238.84,214.07 1243.49,225.73 1245.46,239.00
             1245.96,241.53 1247.19,251.43 1245.46,252.98
             1243.89,254.23 1239.90,254.00 1238.00,254.00
             1238.00,254.00 1202.00,254.00 1202.00,254.00
             1200.00,254.00 1196.20,254.24 1194.60,252.98
             1192.14,251.05 1193.15,243.65 1189.01,237.00
             1183.85,228.73 1175.30,226.03 1166.00,227.18
             1156.13,228.41 1149.00,236.80 1146.49,246.00
             1144.60,252.90 1144.92,259.91 1145.00,267.00
             1145.19,282.67 1153.55,297.67 1171.00,296.96
             1178.95,296.64 1185.83,293.03 1189.92,286.00
             1195.48,276.43 1189.56,271.18 1200.00,271.00
             1200.00,271.00 1238.00,271.00 1238.00,271.00
             1240.14,271.00 1244.54,270.62 1245.90,272.60
             1246.80,273.93 1246.06,281.04 1245.90,283.00
             1245.12,293.57 1240.35,306.50 1234.08,315.00
             1219.92,334.19 1196.57,340.05 1174.00,341.04
             1174.00,341.04 1164.00,341.82 1164.00,341.82
             1139.86,340.10 1118.22,336.01 1101.17,317.00
             1090.45,305.05 1083.08,286.09 1083.00,270.00
             1083.00,270.00 1083.00,254.00 1083.00,254.00
             1083.18,239.19 1089.88,221.33 1099.32,210.00
             1113.13,193.44 1130.33,186.81 1151.00,183.14 Z
           M 1332.00,183.21
           C 1332.00,183.21 1357.00,183.21 1357.00,183.21
             1380.52,183.04 1405.44,192.57 1420.54,211.00
             1443.84,239.43 1442.04,292.71 1415.83,318.83
             1402.53,332.08 1383.26,338.47 1365.00,340.90
             1365.00,340.90 1356.00,340.90 1356.00,340.90
             1356.00,340.90 1348.00,341.92 1348.00,341.92
             1348.00,341.92 1340.00,341.09 1340.00,341.09
             1316.49,339.47 1294.70,334.29 1278.17,316.00
             1252.77,287.90 1253.83,233.31 1280.17,206.09
             1294.32,191.47 1312.65,186.35 1332.00,183.21 Z
           M 1514.03,224.00
           C 1516.69,206.82 1530.44,190.57 1547.00,185.22
             1555.80,182.37 1562.91,182.90 1572.00,183.00
             1580.61,183.10 1590.89,186.00 1598.00,190.90
             1611.54,200.24 1612.37,209.00 1617.00,223.00
             1619.76,205.11 1633.62,189.62 1651.00,184.75
             1659.03,182.49 1666.74,182.91 1675.00,183.00
             1690.24,183.18 1703.52,190.18 1711.89,203.00
             1718.32,212.85 1720.86,229.35 1721.00,241.00
             1721.00,241.00 1721.00,339.00 1721.00,339.00
             1721.00,339.00 1659.00,339.00 1659.00,339.00
             1659.00,339.00 1659.00,262.00 1659.00,262.00
             1658.98,249.57 1655.32,232.66 1639.00,234.34
             1625.81,235.69 1619.45,246.98 1618.05,259.00
             1615.89,277.56 1617.00,318.22 1617.00,339.00
             1617.00,339.00 1555.00,339.00 1555.00,339.00
             1555.00,339.00 1555.00,256.00 1555.00,256.00
             1554.98,251.43 1554.85,248.15 1552.59,244.00
             1543.66,227.62 1524.04,233.93 1517.93,249.00
             1514.02,258.65 1515.00,271.63 1515.00,282.00
             1515.00,282.00 1515.00,339.00 1515.00,339.00
             1515.00,339.00 1453.00,339.00 1453.00,339.00
             1453.00,339.00 1453.00,185.00 1453.00,185.00
             1453.00,185.00 1515.00,185.00 1515.00,185.00
             1515.00,185.00 1514.03,196.00 1514.03,196.00
             1514.03,196.00 1514.03,210.00 1514.03,210.00
             1514.03,210.00 1514.03,224.00 1514.03,224.00 Z
           M 562.00,338.00
           C 556.11,339.67 548.23,339.00 542.00,339.00
             542.00,339.00 508.00,339.00 508.00,339.00
             499.36,338.98 499.02,338.64 499.00,330.00
             499.00,330.00 499.00,219.00 499.00,219.00
             499.00,219.00 499.00,194.00 499.00,194.00
             499.00,192.01 498.77,188.19 500.02,186.60
             501.59,184.62 505.70,185.00 508.00,185.00
             508.00,185.00 542.00,185.00 542.00,185.00
             548.23,185.00 556.11,184.33 562.00,186.00
             562.00,186.00 562.00,209.00 562.00,209.00
             562.00,209.00 562.00,257.00 562.00,257.00
             562.00,257.00 562.00,311.00 562.00,311.00
             562.00,311.00 562.00,338.00 562.00,338.00 Z
           M 430.00,245.00
           C 429.95,239.25 429.31,232.72 425.58,228.04
             418.49,219.15 398.93,218.62 390.04,224.85
             383.55,229.40 381.48,237.65 380.00,245.00
             380.00,245.00 430.00,245.00 430.00,245.00 Z
           M 886.00,245.00
           C 885.98,238.81 885.75,233.10 881.61,228.04
             874.47,219.33 854.96,218.41 846.09,224.85
             839.63,229.54 837.92,237.78 836.00,245.00
             836.00,245.00 886.00,245.00 886.00,245.00 Z
           M 1342.00,227.43
           C 1323.53,231.88 1321.82,250.17 1322.00,266.00
             1322.23,285.55 1332.96,300.22 1354.00,296.68
             1368.33,294.27 1372.63,282.74 1374.15,270.00
             1374.57,266.53 1375.12,264.66 1374.91,261.00
             1374.11,247.00 1370.93,231.20 1355.00,227.43
             1351.34,226.68 1345.75,226.91 1342.00,227.43 Z
           M 1016.00,257.51
           C 1054.93,256.73 1073.76,299.58 1051.32,327.99
             1047.92,332.30 1042.84,336.09 1038.00,338.68
             1029.69,343.12 1024.06,343.10 1015.00,343.00
             983.84,342.63 965.97,307.82 979.37,281.00
             987.13,265.49 999.53,259.43 1016.00,257.51 Z
           M 1783.00,257.59
           C 1792.09,257.67 1800.48,259.40 1808.00,264.79
             1833.41,282.98 1833.28,322.46 1805.00,338.10
             1796.64,342.71 1790.21,343.10 1781.00,343.00
             1752.08,342.66 1733.18,311.29 1743.46,285.00
             1750.60,266.76 1764.33,259.17 1783.00,257.59 Z" />
</svg>
